# xmcd
#
# Track frame offsets: 
#        182
#        21030
#        38920
#        67132
#        87262
#        110450
#        129427
#        146990
#        163247
#        190755
#        212347
#
# Disc length: 3051 seconds
#
# Revision: 0
# Processed by: cddbd v1.5.1PL0 Copyright (c) Steve Scherf et al.
# Submitted via: ExactAudioCopy v0.95a5
#
DISCID=9c0be90b
DTITLE=Magic Slim and The Teardrops - Magic Blues (The blues of the Magi
DTITLE=c Man)
DYEAR=1991
DGENRE=Blues
TTITLE0=Spider In My Stew
TTITLE1=Rough Dried Woman
TTITLE2=Sometimes I Wonder
TTITLE3=Oh Wee Baby
TTITLE4=Wonder What's The Matter
TTITLE5=Stranded On The Highway
TTITLE6=Evil
TTITLE7=Why Does A Woman Treat A Man So Bad?
TTITLE8=Don't Tell Me 'Bout Your Troubles
TTITLE9=I'm Doing Too Bad
TTITLE10=I Got To Leave
EXTD=
EXTT0=
EXTT1=
EXTT2=
EXTT3=
EXTT4=
EXTT5=
EXTT6=
EXTT7=
EXTT8=
EXTT9=
EXTT10=
PLAYORDER=
